<svg xmlns="http://www.w3.org/2000/svg" style="display:none" aria-hidden="true">
<symbol id="p-star" viewBox="0 0 256 256"><path d="M234.29,114.85l-45,38.83L203,211.75a16.4,16.4,0,0,1-24.5,17.82L128,198.49,77.47,229.57A16.4,16.4,0,0,1,53,211.75l13.76-58.07-45-38.83A16.46,16.46,0,0,1,31.08,86l59-4.76,22.76-55.08a16.36,16.36,0,0,1,30.27,0l22.75,55.08,59,4.76a16.46,16.46,0,0,1,9.37,28.86Z"/></symbol>
<symbol id="p-crown" viewBox="0 0 256 256"><path d="M248,80a28,28,0,1,0-51.12,15.77l-26.79,33L146,73.4a28,28,0,1,0-36.06,0L85.91,128.74l-26.79-33a28,28,0,1,0-26.6,12L47,194.63A16,16,0,0,0,62.78,208H193.22A16,16,0,0,0,209,194.63l14.47-86.85A28,28,0,0,0,248,80ZM128,40a12,12,0,1,1-12,12A12,12,0,0,1,128,40ZM24,80A12,12,0,1,1,36,92,12,12,0,0,1,24,80ZM220,92a12,12,0,1,1,12-12A12,12,0,0,1,220,92Z"/></symbol>
<symbol id="p-speaker-high" viewBox="0 0 256 256"><path d="M160,32.25V223.69a8.29,8.29,0,0,1-3.91,7.18,8,8,0,0,1-9-.56l-65.57-51A4,4,0,0,1,80,176.16V79.84a4,4,0,0,1,1.55-3.15l65.57-51a8,8,0,0,1,10,.16A8.27,8.27,0,0,1,160,32.25ZM60,80H32A16,16,0,0,0,16,96v64a16,16,0,0,0,16,16H60a4,4,0,0,0,4-4V84A4,4,0,0,0,60,80Zm126.77,20.84a8,8,0,0,0-.72,11.3,24,24,0,0,1,0,31.72,8,8,0,1,0,12,10.58,40,40,0,0,0,0-52.88A8,8,0,0,0,186.74,100.84Zm40.89-26.17a8,8,0,1,0-11.92,10.66,64,64,0,0,1,0,85.34,8,8,0,1,0,11.92,10.66,80,80,0,0,0,0-106.66Z"/></symbol>
<symbol id="p-speaker-slash" viewBox="0 0 256 256"><path d="M213.92,210.62a8,8,0,1,1-11.84,10.76L160,175.09v48.6a8.29,8.29,0,0,1-3.91,7.18,8,8,0,0,1-9-.56l-65.55-51A4,4,0,0,1,80,176.18V87.09L42.08,45.38A8,8,0,1,1,53.92,34.62Zm-27.21-55.46a8,8,0,0,0,11.29-.7,40,40,0,0,0,0-52.88,8,8,0,1,0-12,10.57,24,24,0,0,1,0,31.72A8,8,0,0,0,186.71,155.16Zm40.92-80.49a8,8,0,1,0-11.92,10.66,64,64,0,0,1,0,85.34,8,8,0,1,0,11.92,10.66,80,80,0,0,0,0-106.66ZM153,119.87a4,4,0,0,0,7-2.7V32.25a8.27,8.27,0,0,0-2.88-6.4,8,8,0,0,0-10-.16L103.83,59.33a4,4,0,0,0-.5,5.85ZM60,80H32A16,16,0,0,0,16,96v64a16,16,0,0,0,16,16H60a4,4,0,0,0,4-4V84A4,4,0,0,0,60,80Z"/></symbol>
<symbol id="p-share-network" viewBox="0 0 256 256"><path d="M212,200a36,36,0,1,1-69.85-12.25l-53-34.05a36,36,0,1,1,0-51.4l53-34a36.09,36.09,0,1,1,8.67,13.45l-53,34.05a36,36,0,0,1,0,24.5l53,34.05A36,36,0,0,1,212,200Z"/></symbol>
<symbol id="p-arrow-counter-clockwise" viewBox="0 0 256 256"><path d="M224,128a96,96,0,0,1-94.71,96H128A95.38,95.38,0,0,1,62.1,197.8a8,8,0,0,1,11-11.63A80,80,0,1,0,71.43,71.39a3.07,3.07,0,0,1-.26.25L60.63,81.29l17,17A8,8,0,0,1,72,112H24a8,8,0,0,1-8-8V56A8,8,0,0,1,29.66,50.3L49.31,70,60.25,60A96,96,0,0,1,224,128Z"/></symbol>
<symbol id="p-arrow-clockwise" viewBox="0 0 256 256"><path d="M240,56v48a8,8,0,0,1-8,8H184a8,8,0,0,1-5.66-13.66l17-17-10.55-9.65-.25-.24a80,80,0,1,0-1.67,114.78,8,8,0,1,1,11,11.63A95.44,95.44,0,0,1,128,224h-1.32A96,96,0,1,1,195.75,60l10.93,10L226.34,50.3A8,8,0,0,1,240,56Z"/></symbol>
<symbol id="p-coffee" viewBox="0 0 256 256"><path d="M208,80H32a8,8,0,0,0-8,8v48a96.3,96.3,0,0,0,32.54,72H32a8,8,0,0,0,0,16H208a8,8,0,0,0,0-16H183.46a96.59,96.59,0,0,0,27-40.09A40,40,0,0,0,248,128v-8A40,40,0,0,0,208,80Zm24,48a24,24,0,0,1-17.2,23,95.78,95.78,0,0,0,1.2-15V97.38A24,24,0,0,1,232,120ZM112,56V24a8,8,0,0,1,16,0V56a8,8,0,0,1-16,0Zm32,0V24a8,8,0,0,1,16,0V56a8,8,0,0,1-16,0ZM80,56V24a8,8,0,0,1,16,0V56a8,8,0,0,1-16,0Z"/></symbol>
<symbol id="g-snake" viewBox="0 0 512 512"><path d="M301.563 20.22c-8.64-.033-17.075.304-25.22.968-200.737 0-184.708 197.468 0 226 184.71 28.53 137.485 190.906 9.907 190.906-84.162 0-140.85-19.887-181.03-64.156-42.064-46.34-12.496-99.594 44.28-51.938 57.026 47.867 100.32 83.576 171.813 28-89.54 29.698-124.626-42.73-188.313-81.875-60.388-37.117-138.036 38.746-86 121.25 43.402 68.815 152.713 107.78 243.344 107.78 220.645 0 259.324-271.296 63.094-301.936-69.28-10.818-119.376-23.398-143.688-61.907-17.817-28.226 32.672-85.843 97.656-59.688 9.406 15.75 13.877 35.578 15.375 65.47l83.5 39.53 3.22-5.438.063.125c8.535-4.49 14.952-14.657 20.906-26.03-10.923 4.674-23.103 4.475-34.69 1.468-2.788-1.817-5.497-3.827-8.092-6-23.392-19.585-28.737-45.978-11.938-58.97 12.435-9.615 33.52-9.19 53.125-.374 8.603 18.074 9.702 35.265 11.188 52.5 10.24-14.024 15.704-29.453 18.562-45.656l10.72-18.063C421.43 35.528 357.307 20.423 301.56 20.22zm42.812 22.06c13.64.758 28.504 1.625 41.72 9.407l-9.47 16.126c-8.187-4.822-19.96-6.137-33.28-6.876l1.03-18.656z"/></symbol>
<symbol id="g-donut" viewBox="0 0 512 512"><path d="M256 92.3c-53.2 0-102.8 14.8-142.2 37.4l14.2 22.4-15.2 9.6-14.23-22.5c-2.17 1.4-4.3 2.9-6.39 4.4-38.75 27.9-63.12 63.7-66.7 97.2 2.98 6.7 8.12 17.5 14.74 28.8 10.73 18.3 26.22 36.6 37.19 39.8 17.92-2.5 33.99-22.1 50.29-19.3 25.1 5.1 38.1 28.4 50.3 48 9.3 14.5 21.1 34.7 38.1 36.5 6.2.7 11.6-1.2 17.7-5.2 6.1-4.1 12.5-10.4 19.2-17.3 13.2-13.7 27.7-30.9 49.5-33.6 15.3-2 27.6 6.2 38.1 12.4 10.4 6.1 18.7 10.2 25.5 8.6h.1c11.1-5.4 16.8-14.8 22.1-23.2l-35.6-25.4 10.4-14.6 35.9 25.6c5.1-5.5 11.4-10 19.7-11.8 11.5-2.5 20.4 3.8 27.1 8 6.6 4.2 11.2 6.3 13.8 5.8 3.1-.6 11.8-7 18.1-13.8 2-2.2 3.9-4.4 5.4-6.3 2.6-10.9 3.9-22.4 3.9-34.5 0-1.5-.1-3-.1-4.4l-37.6 18.7-8-16.2 42.4-21.2c-8-29-30.7-58.7-63.9-82.6-42-30.3-100.3-51.3-163.8-51.3zm69.1 14.2l6 17-50.3 18.1-6-17zm-140.2 11l33.4 9.6-5 17.2-33.4-9.5zm184.4 23l39.7 27.6-10.2 14.8-39.7-27.6zm-47.6 12.8l10.8 14.4-33 24.5-10.8-14.4zm-157 34l2.6 17.8-45.6 6.9-2.6-17.8zm91.3 3.6c17.8 0 34 3.2 46.5 9.1 12.5 5.8 22.9 15 22.9 28s-10.4 22.2-22.9 28c-12.5 5.9-28.7 9.1-46.5 9.1s-34-3.2-46.5-9.1c-12.5-5.8-22.9-15-22.9-28s10.4-22.2 22.9-28c12.5-5.9 28.7-9.1 46.5-9.1zm146.2 5.6l4.6 17.4-47.2 12.2-4.6-17.4zM256 208.9c-15.6 0-29.6 3-38.9 7.4-9.4 4.3-12.5 9.2-12.5 11.7s3.1 7.4 12.5 11.7c9.3 4.4 23.3 7.4 38.9 7.4 15.6 0 29.6-3 38.9-7.4 9.4-4.3 12.5-9.2 12.5-11.7s-3.1-7.4-12.5-11.7c-9.3-4.4-23.3-7.4-38.9-7.4zm-194.44 18l39.74 15.4-6.5 16.8-39.74-15.4zm-32 59.9c9.06 35.6 31.19 64.7 62.55 86.9 41.69 29.4 99.99 46 163.89 46 63.9 0 122.2-16.6 163.9-46 21.1-14.9 38.1-33 49.6-54.2-2 .9-4.1 1.6-6.3 2-11.5 2.4-20.4-4-27-8.2-6.7-4.1-11.2-6.2-13.7-5.6-7.2 1.6-13.4 9.7-20.6 20.8-7.3 11-15.6 25-31.8 28.6-15.2 3.4-28-4.4-38.7-10.7-10.6-6.3-19.5-11-26.6-10.1-16.8 5-29.2 18.3-38.9 28.3-6.8 7.1-13.8 14.3-22.1 19.8s-18.3 9.2-29.5 8.2c-26.8-4.9-39.2-24.9-51.6-45-12.3-19.7-23.5-36.8-38.6-39.9-18.7 3-31.62 24.4-51.74 18.9-18.43-5.4-32.01-22.5-42.8-39.8zm223.64 2.8l2.6 17.8-50.4 7.4-2.6-17.8z"/></symbol>
</svg>