<svg xmlns="http://www.w3.org/2000/svg" style="display:none" aria-hidden="true">
<symbol id="p-star" viewBox="0 0 256 256"><path d="M234.29,114.85l-45,38.83L203,211.75a16.4,16.4,0,0,1-24.5,17.82L128,198.49,77.47,229.57A16.4,16.4,0,0,1,53,211.75l13.76-58.07-45-38.83A16.46,16.46,0,0,1,31.08,86l59-4.76,22.76-55.08a16.36,16.36,0,0,1,30.27,0l22.75,55.08,59,4.76a16.46,16.46,0,0,1,9.37,28.86Z"/></symbol>
<symbol id="p-crown" viewBox="0 0 256 256"><path d="M248,80a28,28,0,1,0-51.12,15.77l-26.79,33L146,73.4a28,28,0,1,0-36.06,0L85.91,128.74l-26.79-33a28,28,0,1,0-26.6,12L47,194.63A16,16,0,0,0,62.78,208H193.22A16,16,0,0,0,209,194.63l14.47-86.85A28,28,0,0,0,248,80ZM128,40a12,12,0,1,1-12,12A12,12,0,0,1,128,40ZM24,80A12,12,0,1,1,36,92,12,12,0,0,1,24,80ZM220,92a12,12,0,1,1,12-12A12,12,0,0,1,220,92Z"/></symbol>
<symbol id="p-speaker-high" viewBox="0 0 256 256"><path d="M160,32.25V223.69a8.29,8.29,0,0,1-3.91,7.18,8,8,0,0,1-9-.56l-65.57-51A4,4,0,0,1,80,176.16V79.84a4,4,0,0,1,1.55-3.15l65.57-51a8,8,0,0,1,10,.16A8.27,8.27,0,0,1,160,32.25ZM60,80H32A16,16,0,0,0,16,96v64a16,16,0,0,0,16,16H60a4,4,0,0,0,4-4V84A4,4,0,0,0,60,80Zm126.77,20.84a8,8,0,0,0-.72,11.3,24,24,0,0,1,0,31.72,8,8,0,1,0,12,10.58,40,40,0,0,0,0-52.88A8,8,0,0,0,186.74,100.84Zm40.89-26.17a8,8,0,1,0-11.92,10.66,64,64,0,0,1,0,85.34,8,8,0,1,0,11.92,10.66,80,80,0,0,0,0-106.66Z"/></symbol>
<symbol id="p-speaker-slash" viewBox="0 0 256 256"><path d="M213.92,210.62a8,8,0,1,1-11.84,10.76L160,175.09v48.6a8.29,8.29,0,0,1-3.91,7.18,8,8,0,0,1-9-.56l-65.55-51A4,4,0,0,1,80,176.18V87.09L42.08,45.38A8,8,0,1,1,53.92,34.62Zm-27.21-55.46a8,8,0,0,0,11.29-.7,40,40,0,0,0,0-52.88,8,8,0,1,0-12,10.57,24,24,0,0,1,0,31.72A8,8,0,0,0,186.71,155.16Zm40.92-80.49a8,8,0,1,0-11.92,10.66,64,64,0,0,1,0,85.34,8,8,0,1,0,11.92,10.66,80,80,0,0,0,0-106.66ZM153,119.87a4,4,0,0,0,7-2.7V32.25a8.27,8.27,0,0,0-2.88-6.4,8,8,0,0,0-10-.16L103.83,59.33a4,4,0,0,0-.5,5.85ZM60,80H32A16,16,0,0,0,16,96v64a16,16,0,0,0,16,16H60a4,4,0,0,0,4-4V84A4,4,0,0,0,60,80Z"/></symbol>
<symbol id="p-share-network" viewBox="0 0 256 256"><path d="M212,200a36,36,0,1,1-69.85-12.25l-53-34.05a36,36,0,1,1,0-51.4l53-34a36.09,36.09,0,1,1,8.67,13.45l-53,34.05a36,36,0,0,1,0,24.5l53,34.05A36,36,0,0,1,212,200Z"/></symbol>
<symbol id="p-arrow-counter-clockwise" viewBox="0 0 256 256"><path d="M224,128a96,96,0,0,1-94.71,96H128A95.38,95.38,0,0,1,62.1,197.8a8,8,0,0,1,11-11.63A80,80,0,1,0,71.43,71.39a3.07,3.07,0,0,1-.26.25L60.63,81.29l17,17A8,8,0,0,1,72,112H24a8,8,0,0,1-8-8V56A8,8,0,0,1,29.66,50.3L49.31,70,60.25,60A96,96,0,0,1,224,128Z"/></symbol>
<symbol id="p-arrow-clockwise" viewBox="0 0 256 256"><path d="M240,56v48a8,8,0,0,1-8,8H184a8,8,0,0,1-5.66-13.66l17-17-10.55-9.65-.25-.24a80,80,0,1,0-1.67,114.78,8,8,0,1,1,11,11.63A95.44,95.44,0,0,1,128,224h-1.32A96,96,0,1,1,195.75,60l10.93,10L226.34,50.3A8,8,0,0,1,240,56Z"/></symbol>
<symbol id="p-coffee" viewBox="0 0 256 256"><path d="M208,80H32a8,8,0,0,0-8,8v48a96.3,96.3,0,0,0,32.54,72H32a8,8,0,0,0,0,16H208a8,8,0,0,0,0-16H183.46a96.59,96.59,0,0,0,27-40.09A40,40,0,0,0,248,128v-8A40,40,0,0,0,208,80Zm24,48a24,24,0,0,1-17.2,23,95.78,95.78,0,0,0,1.2-15V97.38A24,24,0,0,1,232,120ZM112,56V24a8,8,0,0,1,16,0V56a8,8,0,0,1-16,0Zm32,0V24a8,8,0,0,1,16,0V56a8,8,0,0,1-16,0ZM80,56V24a8,8,0,0,1,16,0V56a8,8,0,0,1-16,0Z"/></symbol>
<symbol id="g-snake" viewBox="0 0 512 512"><path d="M301.563 20.22c-8.64-.033-17.075.304-25.22.968-200.737 0-184.708 197.468 0 226 184.71 28.53 137.485 190.906 9.907 190.906-84.162 0-140.85-19.887-181.03-64.156-42.064-46.34-12.496-99.594 44.28-51.938 57.026 47.867 100.32 83.576 171.813 28-89.54 29.698-124.626-42.73-188.313-81.875-60.388-37.117-138.036 38.746-86 121.25 43.402 68.815 152.713 107.78 243.344 107.78 220.645 0 259.324-271.296 63.094-301.936-69.28-10.818-119.376-23.398-143.688-61.907-17.817-28.226 32.672-85.843 97.656-59.688 9.406 15.75 13.877 35.578 15.375 65.47l83.5 39.53 3.22-5.438.063.125c8.535-4.49 14.952-14.657 20.906-26.03-10.923 4.674-23.103 4.475-34.69 1.468-2.788-1.817-5.497-3.827-8.092-6-23.392-19.585-28.737-45.978-11.938-58.97 12.435-9.615 33.52-9.19 53.125-.374 8.603 18.074 9.702 35.265 11.188 52.5 10.24-14.024 15.704-29.453 18.562-45.656l10.72-18.063C421.43 35.528 357.307 20.423 301.56 20.22zm42.812 22.06c13.64.758 28.504 1.625 41.72 9.407l-9.47 16.126c-8.187-4.822-19.96-6.137-33.28-6.876l1.03-18.656z"/></symbol>
<symbol id="g-donut" viewBox="0 0 512 512"><path d="M256 92.3c-53.2 0-102.8 14.8-142.2 37.4l14.2 22.4-15.2 9.6-14.23-22.5c-2.17 1.4-4.3 2.9-6.39 4.4-38.75 27.9-63.12 63.7-66.7 97.2 2.98 6.7 8.12 17.5 14.74 28.8 10.73 18.3 26.22 36.6 37.19 39.8 17.92-2.5 33.99-22.1 50.29-19.3 25.1 5.1 38.1 28.4 50.3 48 9.3 14.5 21.1 34.7 38.1 36.5 6.2.7 11.6-1.2 17.7-5.2 6.1-4.1 12.5-10.4 19.2-17.3 13.2-13.7 27.7-30.9 49.5-33.6 15.3-2 27.6 6.2 38.1 12.4 10.4 6.1 18.7 10.2 25.5 8.6h.1c11.1-5.4 16.8-14.8 22.1-23.2l-35.6-25.4 10.4-14.6 35.9 25.6c5.1-5.5 11.4-10 19.7-11.8 11.5-2.5 20.4 3.8 27.1 8 6.6 4.2 11.2 6.3 13.8 5.8 3.1-.6 11.8-7 18.1-13.8 2-2.2 3.9-4.4 5.4-6.3 2.6-10.9 3.9-22.4 3.9-34.5 0-1.5-.1-3-.1-4.4l-37.6 18.7-8-16.2 42.4-21.2c-8-29-30.7-58.7-63.9-82.6-42-30.3-100.3-51.3-163.8-51.3zm69.1 14.2l6 17-50.3 18.1-6-17zm-140.2 11l33.4 9.6-5 17.2-33.4-9.5zm184.4 23l39.7 27.6-10.2 14.8-39.7-27.6zm-47.6 12.8l10.8 14.4-33 24.5-10.8-14.4zm-157 34l2.6 17.8-45.6 6.9-2.6-17.8zm91.3 3.6c17.8 0 34 3.2 46.5 9.1 12.5 5.8 22.9 15 22.9 28s-10.4 22.2-22.9 28c-12.5 5.9-28.7 9.1-46.5 9.1s-34-3.2-46.5-9.1c-12.5-5.8-22.9-15-22.9-28s10.4-22.2 22.9-28c12.5-5.9 28.7-9.1 46.5-9.1zm146.2 5.6l4.6 17.4-47.2 12.2-4.6-17.4zM256 208.9c-15.6 0-29.6 3-38.9 7.4-9.4 4.3-12.5 9.2-12.5 11.7s3.1 7.4 12.5 11.7c9.3 4.4 23.3 7.4 38.9 7.4 15.6 0 29.6-3 38.9-7.4 9.4-4.3 12.5-9.2 12.5-11.7s-3.1-7.4-12.5-11.7c-9.3-4.4-23.3-7.4-38.9-7.4zm-194.44 18l39.74 15.4-6.5 16.8-39.74-15.4zm-32 59.9c9.06 35.6 31.19 64.7 62.55 86.9 41.69 29.4 99.99 46 163.89 46 63.9 0 122.2-16.6 163.9-46 21.1-14.9 38.1-33 49.6-54.2-2 .9-4.1 1.6-6.3 2-11.5 2.4-20.4-4-27-8.2-6.7-4.1-11.2-6.2-13.7-5.6-7.2 1.6-13.4 9.7-20.6 20.8-7.3 11-15.6 25-31.8 28.6-15.2 3.4-28-4.4-38.7-10.7-10.6-6.3-19.5-11-26.6-10.1-16.8 5-29.2 18.3-38.9 28.3-6.8 7.1-13.8 14.3-22.1 19.8s-18.3 9.2-29.5 8.2c-26.8-4.9-39.2-24.9-51.6-45-12.3-19.7-23.5-36.8-38.6-39.9-18.7 3-31.62 24.4-51.74 18.9-18.43-5.4-32.01-22.5-42.8-39.8zm223.64 2.8l2.6 17.8-50.4 7.4-2.6-17.8z"/></symbol>
<symbol id="g-apple-seeds" viewBox="0 0 512 512"><path d="M261.438 21.22c-15.84.29-39.205 5.187-47.22 24.593 16.916 29.242 27.28 56.103 31.188 86.03-18.24-11.44-37.88-19.485-58.187-23.562-11.477-2.303-22.64-3.514-32.97-3.155-73.71 2.563-136.555 66.652-135.344 158.844 1.39 105.896 79.51 207.666 170.03 225.842 11.483 2.307 25.594 3.514 38.22 2.344 12.626-1.17 23.416-4.88 29.25-10.47l6-5.748 6.406 5.28c5.578 4.59 17.04 8.266 29.97 9.47 12.93 1.203 27.243.23 38.374-2.22 89.895-19.778 157.117-122.258 155.72-228.624-.697-52.98-19.85-96.1-49.5-123.438-22.238-20.503-50.338-32.37-81.97-32.844-10.544-.158-21.47.963-32.72 3.438-17.795 3.915-35.014 10.908-51.123 20.563 1.056-35.043-1.918-67.18-9.844-106.22-1.89-.116-4.02-.166-6.283-.124zm-2.594 157.155c10.815 12.31 14.52 23.08 13.72 33.25-.777 9.853-6.463 20.39-17.033 31.438-23.14-19.986-17.763-52.22 3.314-64.688zm67.062 36.47c3.374-.02 6.886.378 10.5 1.186-2.575 15.077-7.64 25.913-15.094 32.407-7.693 6.705-18.566 10.168-34.906 8.813-2.204-20.99 14.342-41.402 38.063-42.375.475-.02.954-.03 1.436-.03zm-140.812 2.53c19.99-.49 36.904 13.895 39.687 32.406-15.465 5.4-26.843 4.78-35.968.22-8.842-4.42-16.477-13.645-22.75-27.594 5.745-2.945 11.522-4.534 17.094-4.937.65-.048 1.293-.08 1.938-.095zm-7.344 57.438c14.08-.03 27.37 7.438 34 19.75-12.746 10.32-23.678 13.618-33.813 12.406-9.813-1.175-20.107-7.273-30.718-18.283 8.964-9.577 19.954-13.853 30.53-13.875zm140.22 3.656c.754-.003 1.522.02 2.28.06 12.186.67 24.498 6.978 32.72 19.908-12.472 8.847-23.703 12.95-33.564 12.28-10.18-.69-20.303-5.94-30.906-18.437 7.203-8.893 18.14-13.783 29.47-13.81zm-114.75 53.436c4.348.067 8.69.933 12.843 2.563-3.055 16.11-9.266 25.655-17.782 31.28-8.243 5.446-20.044 7.443-35.25 5.906 1.213-24.172 19.444-39.027 38.314-39.72.62-.02 1.253-.04 1.875-.03zm86.968.156c18.88.255 37.48 14.673 39.25 38.813-15.18 1.894-27.034.194-35.407-5.063-8.64-5.424-15.07-14.852-18.5-30.875 4.71-1.98 9.682-2.942 14.658-2.875zm-43.97 16.47c21.083 12.47 26.442 44.702 3.282 64.687-10.564-11.047-16.256-21.59-17.03-31.44-.802-10.17 2.934-20.94 13.75-33.25z"/></symbol>
<symbol id="g-strawberry" viewBox="0 0 512 512"><path d="M365.1 30.76c-16.7 3.83-35.9 36.61-47.6 50.9 8.2 3.7 17.3 3.8 26.9 3.6 4.7-7.83 49.9-54.37 20.7-54.5zm-264.3 64.9c12.1 7.44 28.8 8.84 40.6 8.94 27.2.2 62.9-6.14 99.9-17.24l8.6 15.34c-20.7 18.6-25.7 33.6-25.7 44-.1 10.4 5.9 17.6 7.3 18.6 10.5 7.7 24.9 7.2 42.7-.1 17.9-7.2 37.7-21.1 55.5-36.7l9.2-8.2 5 11.3c12.8 29.1 25.3 55.5 40.5 72.6 13 14.7 27.1 22.9 47.7 22.2-8.9-27.4-14-47.6-21.5-64.2-8.5-18.8-20-34.4-45.9-55.9-3.2-2.6-9.5-3.1-19.4-3-26.5-.2-45.2-5.6-63.4-25.14-5.8-6.3-10.2-11.9-20.7-19.8-57.3 7.28-114 23.84-160.4 37.3zm116.8 16.74c-19.3 4.7-37.9 7.8-55 9.3-1.3 6.9-8 17.9-14 16.7-4.4-1.2-6.5-8-5.2-15.8-9.8-.2-20.1-.8-28.5-2.5-15.26 15.7-19.51 38-23.31 56.7 8.1-1.4 9.11 12.8 7.76 18.4-2.34 8.7-8.08 14.7-12.99 13.8-5.49 44-5.81 93.1-6.06 138.7-.29 54.3-4.75 99.6 27 129.2 85.7 24 196.2-55.3 262-122.3-2.4.8-4.5.6-6.1-.4-4.3-2.9-3.6-11.4 1.5-19 4.1-4.7 10.8-12.4 17-8.8 3.2 2.2 3.7 7.6 1.3 13.8 23.4-25.8 39-48.2 42.1-60 2.1-12.5 2.4-24.5 1.5-36-1.3 0-2.5-.1-3.7-.2-.2 3-1.2 6.5-2.9 9.8-4.2 8.3-11.3 13-15.8 10.7-4.6-2.3-5-10.8-.8-19.1.9-1.8 2-3.5 3.2-4.9-8.8-3-16.8-7.5-23.9-13.2 1.2 4-.2 10-3.9 15.6-5.1 7.7-12.8 11.6-17 8.7-4.3-2.8-3.6-11.3 1.5-19 4-4.6 8.8-9.6 14.4-9.6-2.4-2.2-4.6-4.4-6.8-6.9-12.8-14.4-22.9-32.8-32.3-52.8-2.8 3.7-6.2 5.7-9.2 4.9-3.6-1-5.7-5.8-5.6-11.8C310 167 295.5 176 281 181.9c-2.7 5.8-7.6 14.3-13.2 13.1-2.7-.8-4.6-3.6-5.3-7.6-14.9 2.9-29.5 1.3-41.6-7.5-7.1-5.1-13.6-15-14.6-29.2-2.8 4.3-6.5 6.7-9.8 5.8-5-1.3-7-9.6-4.7-18.5 2.2-7.9 7.1-13.7 11.8-13.9 2.8 0 5 2.5 5.9 4.4 1.8-5.2 4.5-10.5 8.1-16.1zm-50.1 34.1c4.9 1.4 7 9.7 4.6 18.5-2.4 8.9-8.3 15.1-13.3 13.7-5-1.3-7-9.6-4.6-18.5 2.7-6.1 6.6-14.8 13.3-13.7zm-35.4 4.3c4.9 1.4 7 9.7 4.6 18.6-2.4 8.9-8.3 15-13.3 13.6-5-1.3-7-9.6-4.6-18.5 2.8-6.2 6.6-14.6 13.3-13.7zm188.1 14c5 1.3 7 9.6 4.6 18.5-2.3 8.9-8.3 15-13.3 13.7-4.9-1.4-7.6-9.9-4.6-18.6 2.1-6.3 6.7-14.8 13.3-13.6zm-135.1 18.8c5 1.4 7.1 9.7 4.7 18.6-2.4 8.9-8.4 15-13.4 13.6-4.9-1.3-7.6-9.8-4.6-18.5 2.1-6.3 6.7-14.6 13.3-13.7zm44.3 9.4c4.9 1.3 7 9.6 4.6 18.5-2.4 8.9-8.4 15-13.3 13.7-5-1.4-7.6-9.8-4.7-18.5 2.2-6.4 6.8-14.8 13.4-13.7zm67.3 9.7c5 1.3 7.1 9.6 4.7 18.5-2.4 8.9-8.4 15.1-13.4 13.7-4.9-1.3-7-9.6-4.6-18.5 2.7-6.1 6.7-14.8 13.3-13.7zm39.4 1.8c5 1.3 7 9.6 4.6 18.5-2.4 8.9-8.3 15-13.3 13.7-4.9-1.3-7-9.6-4.6-18.5 2.7-6.2 6.6-14.8 13.3-13.7zm-197.7 3c5 1.3 7.1 9.6 4.7 18.5-2.4 8.9-8.4 15-13.3 13.7-5-1.4-7.1-9.6-4.7-18.5 2.6-6 6.8-14.9 13.3-13.7zm121.2 18.8c5 1.4 7.1 9.7 4.7 18.6-2.4 8.9-8.4 15-13.4 13.7-4.9-1.4-7-9.7-4.6-18.6 2.7-6.1 6.7-14.6 13.3-13.7zm-157.9 14.9c4.9 1.4 7 9.7 4.6 18.6-2.4 8.9-8.35 15-13.31 13.7-4.97-1.4-7.05-9.7-4.66-18.6 2.77-6.2 6.69-14.6 13.37-13.7zm209.7 6c5 1.3 7.1 9.6 4.7 18.5-2.4 8.9-8.4 15-13.3 13.7-11.7-7.3-2.1-34.1 8.6-32.2zm-109.9 2.5c5.1.3 8.9 7.9 8.4 17.1-.4 9.2-5 16.5-10.1 16.2-5.2-.3-8.9-7.9-8.4-17.1.4-9.2 5-16.5 10.1-16.2zM157.4 261c5 1.4 7.1 9.7 4.7 18.6-2.4 8.9-8.4 15-13.3 13.7-5-1.4-7.1-9.7-4.7-18.6 2.7-6.1 6.7-14.6 13.3-13.7zm199 7.9c4.3 2.8 3.6 11.3-1.5 19-5.1 7.7-12.7 11.6-17 8.7-4.3-2.9-3.6-11.4 1.5-19 3.7-4.2 11.3-13 17-8.7zm47.1 6.5c4.4 2.7 4.1 11.2-.7 19.1-4.8 7.8-12.3 12-16.7 9.4-4.4-2.7-4-11.3.8-19.1 3.8-4.4 10.4-13.2 16.6-9.4zm-161.1 4.5c4.9 1.3 7 9.6 4.6 18.5-2.4 8.9-8.3 15-13.3 13.7-4.9-1.3-7-9.6-4.6-18.5 2.7-6.1 6.7-14.8 13.3-13.7zm50.4 10.8c4.3 2.8 3.6 11.3-1.5 19-5.1 7.7-12.7 11.6-17 8.7-4.3-2.9-3.6-11.4 1.5-19 3.7-4.1 11.3-13 17-8.7zM107 300.2c4.9 1.4 7 9.7 4.6 18.6-2.4 8.9-8.3 15-13.33 13.6-4.96-1.3-7.04-9.6-4.65-18.5 2.77-6.2 6.68-14.6 13.38-13.7zm222.5 10.3c4.3 2.9 3.6 11.4-1.5 19.1-5.1 7.6-12.7 11.5-17 8.7-4.3-2.9-3.6-11.4 1.5-19.1 3.9-4.4 11-12.6 17-8.7zm-133 .3c5 1.3 7.1 9.6 4.7 18.5-2.4 8.9-8.4 15-13.3 13.7-5-1.4-7.1-9.6-4.7-18.5 2.6-6 6.8-14.9 13.3-13.7zm-52.5 5.9c5 1.3 7.1 9.6 4.7 18.5-2.4 8.9-8.4 15-13.4 13.7-4.9-1.3-7.5-9.8-4.6-18.5 2.1-6.2 6.8-14.9 13.3-13.7zm121.1 17.5c4.3 2.8 3.6 11.4-1.5 19-5.1 7.7-12.7 11.6-17 8.7-4.3-2.8-3.6-11.4 1.5-19 3.7-4.2 11.3-13 17-8.7zm30.2 22.5c4.3 2.9 3.6 11.4-1.5 19-5.1 7.7-12.7 11.6-17 8.7-4.3-2.8-3.6-11.3 1.5-19 4-4.3 11-12.6 17-8.7zm40.3 1.5c4.2 2.9 3.5 11.4-1.6 19-5.1 7.7-12.7 11.6-17 8.7-4.2-2.8-3.6-11.3 1.6-19 4.1-4.6 10.8-12.3 17-8.7zm-132.1-.4c4.9 1.4 7 9.7 4.6 18.6-2.4 8.9-8.3 15-13.3 13.7-5-1.4-7.6-9.9-4.6-18.6 2.3-6.8 6.4-14.3 13.3-13.7zm-94.9 12.6c5 1.3 7.1 9.6 4.7 18.5-2.4 8.9-8.4 15-13.36 13.7-4.97-1.4-7.05-9.7-4.65-18.5 2.62-6 6.81-14.9 13.31-13.7zm47.7 10.4c4.9 1.3 7 9.6 4.6 18.5-2.4 8.9-8.3 15-13.3 13.7-5-1.3-7.7-9.8-4.7-18.5 2.2-6.3 6.8-14.8 13.4-13.7zm76.7 20.1c4.3 2.9 3.6 11.4-1.5 19.1-5.1 7.6-12.7 11.5-17 8.7-4.3-2.9-3.6-11.4 1.5-19.1 3.9-4.4 11-12.6 17-8.7zm41.1 6.5c4.3 2.9 3.6 11.4-1.5 19.1-5.1 7.6-12.7 11.5-17 8.7-4.3-2.9-3.6-11.4 1.5-19.1 3.9-4.3 11-12.6 17-8.7zm-152.6 26.5c5 1.4 7.1 9.7 4.7 18.6-2.4 8.9-8.4 15-13.3 13.6-5-1.3-7.1-9.6-4.7-18.5 2.7-6.1 6.8-14.6 13.3-13.7zm64.3 10.5c4.2 2.9 3.5 11.4-1.6 19.1-5.1 7.6-12.7 11.5-17 8.7-4.3-2.9-3.6-11.4 1.5-19.1 4.1-4.6 10.9-12.3 17.1-8.7z"/></symbol>
<symbol id="g-cherry" viewBox="0 0 512 512"><path d="M278.814 35.137c-3.87 29.372 2.21 62.917 23.563 91.277 24.7 32.807 70.077 59.506 146.49 64.467-10.864-53.306-31.943-84.387-60.87-107.415-23.07-18.367-51.784-31.734-84.02-45.96 29.838 36.785 60.63 73.392 105.382 92.694l-7.13 16.527c-55.713-24.03-90.292-70.698-123.416-111.59zM259.2 46.79c-42.613 88.792-88.927 175.71-147.975 257.08-1.967-1.61-3.77-3.225-5.454-4.725-4.98-4.436-9.11-7.99-15.42-10.407-2.338-.896-4.675-1.33-7.02-1.326-7.035.01-14.15 3.948-21.65 11.11-10 9.553-18.946 24.412-23.893 37.62-14.318 38.227 4.955 80.574 43.186 94.89 38.23 14.32 80.582-4.952 94.9-43.178 4.94-13.187 8.024-30.42 6.8-44.243-.61-6.91-2.283-12.897-4.786-17.208-2.503-4.31-5.532-7.033-10.21-8.627-4.466-1.52-10.517-1.707-17.765-1.85-6.83-.133-14.742-.297-22.97-3.064 53.342-73.767 96.236-151.695 135.23-230.99-7.14 56.593-14.18 114.543-29.91 170.29-7.03-.83-12.847-3.195-17.887-5.144-6.222-2.407-11.337-4.285-18.094-4.336-10.013-.077-17.4 6.766-23.415 19.216-5.06 10.48-8.094 24.21-8.93 36.708 3.11.388 6.3 1.027 9.544 2.132 8.872 3.023 15.68 9.234 19.973 16.627 4.293 7.394 6.374 15.88 7.15 24.662.775 8.75.267 17.862-1.156 26.727 11.08 6.646 24.062 10.47 37.967 10.47 40.825 0 73.725-32.898 73.725-73.718 0-14.08-3.156-31.3-9.15-43.817-2.997-6.257-6.663-11.276-10.52-14.435-3.856-3.16-7.648-4.648-12.59-4.5-4.713.142-10.445 2.09-17.282 4.498-3.142 1.107-6.54 2.286-10.188 3.25 11.84-43.77 18.6-88.247 24.276-131.803C263.302 95.443 258.402 70.4 259.2 46.79zm46.732 110.605c1.617 5.452 3.26 10.96 4.945 16.554 20.44 67.845 45.324 144.313 68.207 195.255-4.537.18-8.715-.204-12.46-.52-6.65-.564-12.083-.93-18.583.917-9.63 2.738-14.8 11.38-17.075 25.017-2.275 13.638-.524 30.894 3.437 44.43 11.464 39.178 52.28 61.515 91.463 50.052 39.182-11.464 61.52-52.276 50.057-91.454-3.955-13.514-11.82-29.155-21.086-39.484-4.634-5.164-9.564-8.953-14.152-10.902-2.295-.975-4.456-1.554-6.63-1.698-2.177-.143-4.368.15-6.718.915-4.485 1.458-9.44 4.937-15.324 9.168-4.337 3.118-9.218 6.61-15.076 9.29-21.51-47.232-46.358-122.123-66.762-189.375-9.007-5.556-17.075-11.646-24.242-18.168z"/></symbol>
<symbol id="g-grapes" viewBox="0 0 512 512"><path d="M277.28 18.094c2.42 33.67-.094 66.692-8.967 99.187-.552-2.168-1.15-4.308-1.813-6.436-9.355-30.034-29.53-55.765-61.313-75.313-21.642-16.548-60.26-23.695-113.437-8.343 2.25 22.26 45.452 24.822 60.156 26.844C123.012 60.4 91.11 85.214 48.53 90.25c39.324 20.744 92.66 4.396 129.064-11.688-1.873 17.715-13.69 29.033-24.53 59.594 47.832-11.062 70.85-37.418 72.155-62.562 11.173 12.212 18.763 25.81 23.436 40.812 3.505 11.25 5.34 23.392 5.594 36.344 3.873 4.97 6.9 10.635 8.813 16.78 5.315-3.01 11.198-5.134 17.437-6.155 6.107-14.92 12.983-27.09 20.53-36.156 14.88-17.87 30.967-24.548 53.5-20.19l.033-.155c32.603 22.698 24.114 60.97 12.25 89.375 21.587-6.676 33.4-19.928 33.437-42.97 17.947 11.77 25.423 31.093 30.563 52.064 7.22-21.503 5.772-44.784-12.782-64.844l43.345 16.5c-27.924-33.363-54.318-68.923-105.28-68.688-26.457-4.45-49.91 4.967-67.376 24.563 7.41-31.25 9.436-62.938 7.28-94.78h-18.72zM212.53 150.97c-19.002 0-34.218 15.184-34.218 34.186 0 6.81 1.963 13.127 5.344 18.438 3.66-.807 7.452-1.25 11.344-1.25 13.056 0 25.03 4.807 34.28 12.72 10.44-5.836 17.44-17.008 17.44-29.908 0-19.002-15.186-34.187-34.19-34.187zm-58.405 18.686c-19.003 0-34.22 15.185-34.22 34.188 0 15.977 10.75 29.295 25.47 33.125 4.004-10.795 11.44-19.943 20.97-26.126-4.267-7.615-6.72-16.384-6.72-25.688 0-5.082.74-9.997 2.094-14.656-2.44-.544-4.984-.844-7.595-.844zm134.906 11.688c-19.002 0-34.217 15.185-34.217 34.187 0 3.495.51 6.866 1.468 10.032 4.125-1.04 8.44-1.593 12.876-1.593 16.203 0 30.745 7.38 40.47 18.936 8.274-6.225 13.593-16.133 13.593-27.375 0-19-15.186-34.186-34.19-34.186zM195 221.03c-19.003 0-34.22 15.218-34.22 34.22S176 289.47 195 289.47s34.22-15.218 34.22-34.22-15.217-34.22-34.22-34.22zm147.156 7.032c-.594 0-1.195.002-1.78.032-3.13 12.737-10.908 23.675-21.407 30.937 2.01 5.575 3.092 11.566 3.092 17.814 0 4.15-.523 8.182-1.437 12.062 5.863 4.74 13.34 7.563 21.53 7.563 19.004 0 34.22-15.218 34.22-34.22s-15.216-34.188-34.22-34.188zm-73 14.594c-8.17 0-15.644 2.82-21.5 7.53.16 1.673.25 3.352.25 5.064 0 12.203-4.18 23.462-11.187 32.438 4.49 13.63 17.23 23.375 32.436 23.375 19.003 0 34.22-15.217 34.22-34.22 0-19.002-15.217-34.187-34.22-34.187zm-144.25 11.094c-19.003 0-34.187 15.216-34.187 34.22 0 11.956 6.024 22.397 15.218 28.5 4.38-20.14 20.305-36.045 40.437-40.44-2.357-5.47-3.817-11.402-4.188-17.624-5.063-2.95-10.953-4.656-17.28-4.656zm32.72 39.72c-19.004 0-34.22 15.184-34.22 34.186 0 19.003 15.217 34.22 34.22 34.22 19 0 34.186-15.217 34.186-34.22 0-7.704-2.484-14.777-6.718-20.47-10.17-1.946-19.338-6.793-26.563-13.686-.3-.008-.603-.03-.905-.03zM222 300.686c-4.825 2.887-10.135 5.02-15.78 6.25 2.737 6.375 4.28 13.366 4.28 20.72 0 10.833-3.3 20.933-8.938 29.343 6.227 6.618 15.09 10.72 24.97 10.72 19.002 0 34.218-15.218 34.218-34.22 0-1.527-.122-3.028-.313-4.5-16.79-2.815-30.95-13.604-38.437-28.313zm91.03 5.657c-7.686 11.375-19.688 19.607-33.592 22.375 5.016 12.622 17.287 21.467 31.78 21.467 19.003 0 34.22-15.185 34.22-34.187 0-.313-.024-.627-.032-.938-1.075.066-2.16.094-3.25.094-10.745 0-20.76-3.25-29.125-8.812zm-38 48.125c-4.6 10.558-12.534 19.36-22.467 25.03 3.98 14.483 17.154 25 32.968 25 19.004 0 34.19-15.185 34.19-34.188 0-.71-.022-1.425-.064-2.125-2.75.445-5.567.688-8.437.688-13.967 0-26.708-5.495-36.19-14.406zm-86.31 15.936c-5.773 4.222-12.433 7.27-19.626 8.875-.816 2.942-1.28 6.036-1.28 9.25 0 19.004 15.184 34.19 34.186 34.19 19.002 0 34.22-15.186 34.22-34.19 0-1.006-.042-2.015-.126-3-3.103.575-6.3.876-9.563.876-14.775 0-28.19-6.147-37.81-16zm-61.282.625c-2.582 4.822-4.032 10.332-4.032 16.22 0 19.002 15.217 34.188 34.22 34.188.992 0 1.966-.044 2.936-.125-7.16-9.024-11.437-20.424-11.437-32.782 0-2.914.26-5.77.72-8.56-8.234-1.228-15.854-4.355-22.407-8.94zm122.968 38.72c-1.208 2.733-2.647 5.342-4.28 7.813 10.19 8.923 16.945 21.68 17.968 35.968 17.506-.66 31.472-14.26 32.75-31.592-3.65.802-7.43 1.25-11.313 1.25-13.452 0-25.763-5.1-35.124-13.438zm-17.094 21.313c-8.777 6.49-19.612 10.343-31.312 10.343-6.638 0-12.98-1.245-18.844-3.5-3.78 5.503-6 12.167-6 19.406 0 19.003 15.185 34.22 34.188 34.22 19.002 0 34.22-15.217 34.22-34.22 0-10.61-4.755-19.998-12.25-26.25z"/></symbol>
<symbol id="g-orange" viewBox="0 0 512 512"><path d="M254.355 15.997c-93.512.726-182.057 56.405-220.066 148.166-50.68 122.35 7.525 262.87 129.874 313.547 122.35 50.68 262.868-7.526 313.547-129.875 50.68-122.35-7.525-262.868-129.874-313.547-30.587-12.67-62.31-18.532-93.48-18.29zm1.325 24.342c33.248 0 66.497 14.247 56.998 42.745L270.822 218.74 338.23 93.165c13.433-26.868 47.018-13.433 70.528 10.077 23.51 23.51 36.946 57.095 10.078 70.53l-126.7 66.57L428.91 199.43c3.562-1.188 6.903-1.71 10.02-1.644 21.82.455 32.728 29.547 32.728 58.64 0 33.247-14.25 66.497-42.748 56.997l-135.385-42.267 125.233 67.072c3.358 1.68 6.088 3.674 8.246 5.924 15.107 15.75 2.25 44.034-18.322 64.605-23.51 23.51-57.095 36.947-70.53 10.078l-67.59-127.218c9.505-3.882 17.067-11.4 21.002-20.885 8.137-19.643-1.19-42.163-20.834-50.3-19.642-8.136-42.162 1.192-50.298 20.835-8.137 19.643 1.19 42.162 20.834 50.3 9.317 3.854 19.776 3.9 29.127.126L311.93 428.91c19 56.998-132.993 56.998-113.994 0l43.605-137.63-67.77 126.5c-26.867 53.736-134.343-53.74-80.606-80.61l124.156-66.243-134.232 41.748c-53.435 17.812-56.775-114.662-10.02-115.637 3.117-.065 6.458.456 10.02 1.643l135.914 41.188L94.146 173.77C43.768 148.583 135.08 52.548 168.83 84.92c2.25 2.157 4.245 4.887 5.924 8.245L239.54 217.95 198.683 83.085c-9.5-28.498 23.75-42.746 56.998-42.746z"/></symbol>
<symbol id="p-trophy" viewBox="0 0 256 256"><path d="M232,64H208V48a8,8,0,0,0-8-8H56a8,8,0,0,0-8,8V64H24A16,16,0,0,0,8,80V96a40,40,0,0,0,40,40h3.65A80.13,80.13,0,0,0,120,191.61V216H96a8,8,0,0,0,0,16h64a8,8,0,0,0,0-16H136V191.58c31.94-3.23,58.44-25.64,68.08-55.58H208a40,40,0,0,0,40-40V80A16,16,0,0,0,232,64ZM48,120A24,24,0,0,1,24,96V80H48v32q0,4,.39,8ZM232,96a24,24,0,0,1-24,24h-.5a81.81,81.81,0,0,0,.5-8.9V80h24Z"/></symbol>
<symbol id="p-fire" viewBox="0 0 256 256"><path d="M143.38,17.85a8,8,0,0,0-12.63,3.41l-22,60.41L84.59,58.26a8,8,0,0,0-11.93.89C51,87.53,40,116.08,40,144a88,88,0,0,0,176,0C216,84.55,165.21,36,143.38,17.85Zm40.51,135.49a57.6,57.6,0,0,1-46.56,46.55A7.65,7.65,0,0,1,136,200a8,8,0,0,1-1.32-15.89c16.57-2.79,30.63-16.85,33.44-33.45a8,8,0,0,1,15.78,2.68Z"/></symbol>
<symbol id="p-sparkle" viewBox="0 0 256 256"><path d="M208,144a15.78,15.78,0,0,1-10.42,14.94L146,178l-19,51.62a15.92,15.92,0,0,1-29.88,0L78,178l-51.62-19a15.92,15.92,0,0,1,0-29.88L78,110l19-51.62a15.92,15.92,0,0,1,29.88,0L146,110l51.62,19A15.78,15.78,0,0,1,208,144ZM152,48h16V64a8,8,0,0,0,16,0V48h16a8,8,0,0,0,0-16H184V16a8,8,0,0,0-16,0V32H152a8,8,0,0,0,0,16Zm88,32h-8V72a8,8,0,0,0-16,0v8h-8a8,8,0,0,0,0,16h8v8a8,8,0,0,0,16,0V96h8a8,8,0,0,0,0-16Z"/></symbol>
<symbol id="p-heart" viewBox="0 0 256 256"><path d="M240,102c0,70-103.79,126.66-108.21,129a8,8,0,0,1-7.58,0C119.79,228.66,16,172,16,102A62.07,62.07,0,0,1,78,40c20.65,0,38.73,8.88,50,23.89C139.27,48.88,157.35,40,178,40A62.07,62.07,0,0,1,240,102Z"/></symbol>
</svg>
