<svg xmlns="http://www.w3.org/2000/svg" style="display:none" aria-hidden="true">
<symbol id="p-arrow-counter-clockwise" viewBox="0 0 256 256"><path d="M224,128a96,96,0,0,1-94.71,96H128A95.38,95.38,0,0,1,62.1,197.8a8,8,0,0,1,11-11.63A80,80,0,1,0,71.43,71.39a3.07,3.07,0,0,1-.26.25L60.63,81.29l17,17A8,8,0,0,1,72,112H24a8,8,0,0,1-8-8V56A8,8,0,0,1,29.66,50.3L49.31,70,60.25,60A96,96,0,0,1,224,128Z"/></symbol>
<symbol id="p-lightbulb" viewBox="0 0 256 256"><path d="M176,232a8,8,0,0,1-8,8H88a8,8,0,0,1,0-16h80A8,8,0,0,1,176,232Zm40-128a87.55,87.55,0,0,1-33.64,69.21A16.24,16.24,0,0,0,176,186v6a16,16,0,0,1-16,16H96a16,16,0,0,1-16-16v-6a16,16,0,0,0-6.23-12.66A87.59,87.59,0,0,1,40,104.49C39.74,56.83,78.26,17.14,125.88,16A88,88,0,0,1,216,104Zm-32.11-9.34a57.6,57.6,0,0,0-46.56-46.55,8,8,0,0,0-2.66,15.78c16.57,2.79,30.63,16.85,33.44,33.45A8,8,0,0,0,176,104a9,9,0,0,0,1.35-.11A8,8,0,0,0,183.89,94.66Z"/></symbol>
<symbol id="p-arrows-clockwise" viewBox="0 0 256 256"><path d="M224,48V96a8,8,0,0,1-8,8H168a8,8,0,0,1-5.66-13.66L180.65,72a79.48,79.48,0,0,0-54.72-22.09h-.45A79.52,79.52,0,0,0,69.59,72.71,8,8,0,0,1,58.41,61.27,96,96,0,0,1,192,60.7l18.36-18.36A8,8,0,0,1,224,48ZM186.41,183.29A80,80,0,0,1,75.35,184l18.31-18.31A8,8,0,0,0,88,152H40a8,8,0,0,0-8,8v48a8,8,0,0,0,13.66,5.66L64,195.3a95.42,95.42,0,0,0,66,26.76h.53a95.36,95.36,0,0,0,67.07-27.33,8,8,0,0,0-11.18-11.44Z"/></symbol>
<symbol id="p-speaker-high" viewBox="0 0 256 256"><path d="M160,32.25V223.69a8.29,8.29,0,0,1-3.91,7.18,8,8,0,0,1-9-.56l-65.57-51A4,4,0,0,1,80,176.16V79.84a4,4,0,0,1,1.55-3.15l65.57-51a8,8,0,0,1,10,.16A8.27,8.27,0,0,1,160,32.25ZM60,80H32A16,16,0,0,0,16,96v64a16,16,0,0,0,16,16H60a4,4,0,0,0,4-4V84A4,4,0,0,0,60,80Zm126.77,20.84a8,8,0,0,0-.72,11.3,24,24,0,0,1,0,31.72,8,8,0,1,0,12,10.58,40,40,0,0,0,0-52.88A8,8,0,0,0,186.74,100.84Zm40.89-26.17a8,8,0,1,0-11.92,10.66,64,64,0,0,1,0,85.34,8,8,0,1,0,11.92,10.66,80,80,0,0,0,0-106.66Z"/></symbol>
<symbol id="p-speaker-slash" viewBox="0 0 256 256"><path d="M213.92,210.62a8,8,0,1,1-11.84,10.76L160,175.09v48.6a8.29,8.29,0,0,1-3.91,7.18,8,8,0,0,1-9-.56l-65.55-51A4,4,0,0,1,80,176.18V87.09L42.08,45.38A8,8,0,1,1,53.92,34.62Zm-27.21-55.46a8,8,0,0,0,11.29-.7,40,40,0,0,0,0-52.88,8,8,0,1,0-12,10.57,24,24,0,0,1,0,31.72A8,8,0,0,0,186.71,155.16Zm40.92-80.49a8,8,0,1,0-11.92,10.66,64,64,0,0,1,0,85.34,8,8,0,1,0,11.92,10.66,80,80,0,0,0,0-106.66ZM153,119.87a4,4,0,0,0,7-2.7V32.25a8.27,8.27,0,0,0-2.88-6.4,8,8,0,0,0-10-.16L103.83,59.33a4,4,0,0,0-.5,5.85ZM60,80H32A16,16,0,0,0,16,96v64a16,16,0,0,0,16,16H60a4,4,0,0,0,4-4V84A4,4,0,0,0,60,80Z"/></symbol>
<symbol id="p-caret-down" viewBox="0 0 256 256"><path d="M213.66,101.66l-80,80a8,8,0,0,1-11.32,0l-80-80A8,8,0,0,1,48,88H208a8,8,0,0,1,5.66,13.66Z"/></symbol>
<symbol id="p-arrow-right" viewBox="0 0 256 256"><path d="M221.66,133.66l-72,72A8,8,0,0,1,136,200V136H40a8,8,0,0,1,0-16h96V56a8,8,0,0,1,13.66-5.66l72,72A8,8,0,0,1,221.66,133.66Z"/></symbol>
<symbol id="p-lock" viewBox="0 0 256 256"><path d="M208,80H176V56a48,48,0,0,0-96,0V80H48A16,16,0,0,0,32,96V208a16,16,0,0,0,16,16H208a16,16,0,0,0,16-16V96A16,16,0,0,0,208,80Zm-80,84a12,12,0,1,1,12-12A12,12,0,0,1,128,164Zm32-84H96V56a32,32,0,0,1,64,0Z"/></symbol>
<symbol id="p-trophy" viewBox="0 0 256 256"><path d="M232,64H208V48a8,8,0,0,0-8-8H56a8,8,0,0,0-8,8V64H24A16,16,0,0,0,8,80V96a40,40,0,0,0,40,40h3.65A80.13,80.13,0,0,0,120,191.61V216H96a8,8,0,0,0,0,16h64a8,8,0,0,0,0-16H136V191.58c31.94-3.23,58.44-25.64,68.08-55.58H208a40,40,0,0,0,40-40V80A16,16,0,0,0,232,64ZM48,120A24,24,0,0,1,24,96V80H48v32q0,4,.39,8ZM232,96a24,24,0,0,1-24,24h-.5a81.81,81.81,0,0,0,.5-8.9V80h24Z"/></symbol>
<symbol id="p-star" viewBox="0 0 256 256"><path d="M234.29,114.85l-45,38.83L203,211.75a16.4,16.4,0,0,1-24.5,17.82L128,198.49,77.47,229.57A16.4,16.4,0,0,1,53,211.75l13.76-58.07-45-38.83A16.46,16.46,0,0,1,31.08,86l59-4.76,22.76-55.08a16.36,16.36,0,0,1,30.27,0l22.75,55.08,59,4.76a16.46,16.46,0,0,1,9.37,28.86Z"/></symbol>
<symbol id="p-timer" viewBox="0 0 256 256"><path d="M128,40a96,96,0,1,0,96,96A96.11,96.11,0,0,0,128,40Zm45.66,61.66-40,40a8,8,0,0,1-11.32-11.32l40-40a8,8,0,0,1,11.32,11.32ZM96,16a8,8,0,0,1,8-8h48a8,8,0,0,1,0,16H104A8,8,0,0,1,96,16Z"/></symbol>
<symbol id="p-target" viewBox="0 0 256 256"><path d="M221.87,83.16A104.1,104.1,0,1,1,195.67,49l22.67-22.68a8,8,0,0,1,11.32,11.32L167.6,99.71h0l-37.71,37.71-23.95,23.95a40,40,0,0,0,62-35.67,8,8,0,1,1,16-.9,56,56,0,0,1-95.5,42.79h0a56,56,0,0,1,73.13-84.43L184.3,60.39a87.88,87.88,0,1,0,23.13,29.67,8,8,0,0,1,14.44-6.9Z"/></symbol>
<symbol id="p-wrench" viewBox="0 0 256 256"><path d="M232,96a72,72,0,0,1-100.94,66L79,222.22c-.12.14-.26.29-.39.42a32,32,0,0,1-45.26-45.26c.14-.13.28-.27.43-.39L94,124.94a72.07,72.07,0,0,1,83.54-98.78,8,8,0,0,1,3.93,13.19L144,80l5.66,26.35L176,112l40.65-37.52a8,8,0,0,1,13.19,3.93A72.6,72.6,0,0,1,232,96Z"/></symbol>
<symbol id="p-copy" viewBox="0 0 256 256"><path d="M216,32H88a8,8,0,0,0-8,8V80H40a8,8,0,0,0-8,8V216a8,8,0,0,0,8,8H168a8,8,0,0,0,8-8V176h40a8,8,0,0,0,8-8V40A8,8,0,0,0,216,32Zm-8,128H176V88a8,8,0,0,0-8-8H96V48H208Z"/></symbol>
<symbol id="p-rocket-launch" viewBox="0 0 256 256"><path d="M101.85,191.14C97.34,201,82.29,224,40,224a8,8,0,0,1-8-8c0-42.29,23-57.34,32.86-61.85a8,8,0,0,1,6.64,14.56c-6.43,2.93-20.62,12.36-23.12,38.91,26.55-2.5,36-16.69,38.91-23.12a8,8,0,1,1,14.56,6.64Zm122-144a16,16,0,0,0-15-15c-12.58-.75-44.73.4-71.4,27.07h0L88,108.7A8,8,0,0,1,76.67,97.39l26.56-26.57A4,4,0,0,0,100.41,64H74.35A15.9,15.9,0,0,0,63,68.68L28.7,103a16,16,0,0,0,9.07,27.16l38.47,5.37,44.21,44.21,5.37,38.49a15.94,15.94,0,0,0,10.78,12.92,16.11,16.11,0,0,0,5.1.83A15.91,15.91,0,0,0,153,227.3L187.32,193A16,16,0,0,0,192,181.65V155.59a4,4,0,0,0-6.83-2.82l-26.57,26.56a8,8,0,0,1-11.71-.42,8.2,8.2,0,0,1,.6-11.1l49.27-49.27h0C223.45,91.86,224.6,59.71,223.85,47.12Z"/></symbol>
<symbol id="p-heart" viewBox="0 0 256 256"><path d="M240,102c0,70-103.79,126.66-108.21,129a8,8,0,0,1-7.58,0C119.79,228.66,16,172,16,102A62.07,62.07,0,0,1,78,40c20.65,0,38.73,8.88,50,23.89C139.27,48.88,157.35,40,178,40A62.07,62.07,0,0,1,240,102Z"/></symbol>
<symbol id="p-hand-tap" viewBox="0 0 256 256"><path d="M64,64a48,48,0,0,1,96,0,8,8,0,0,1-16,0,32,32,0,0,0-64,0,8,8,0,0,1-16,0Zm143.23,56c-8.61.4-15.23,7.82-15.23,16.43v7.28a8.17,8.17,0,0,1-7.47,8.25,8,8,0,0,1-8.53-8V120.45c0-8.61-6.62-16-15.23-16.43A16,16,0,0,0,144,120v15.73a8.17,8.17,0,0,1-7.47,8.25,8,8,0,0,1-8.53-8V64.45c0-8.61-6.62-16-15.23-16.43A16,16,0,0,0,96,64V183.74a8.19,8.19,0,0,1-6.72,8.16l-.12,0a6.09,6.09,0,0,1-6-3.09l-21-36.44c-4.3-7.46-13.74-10.57-21.4-6.62A16,16,0,0,0,34.15,168L65.1,228.05A8,8,0,0,0,72,232H208a8,8,0,0,0,7.16-4.42c.36-.72,8.84-15.06,8.84-40.65V136A16,16,0,0,0,207.23,120Z"/></symbol>
<symbol id="g-corked-tube" viewBox="0 0 512 512"><path d="M342.072 9.492l7.877 4.55c-3.83 6.624-18.15 31.747-25.464 57.745-3.656 13-5.433 26.102-3.857 36.58 1.574 10.478 5.677 18.082 15.31 23.637 9.382 5.408 17.99 5.178 27.902 1.336 9.913-3.842 20.485-11.84 30.06-21.403 19.138-19.113 34.27-44.025 38.127-50.695L342.07 9.492zm-31.006 30.912l-4.656 8.102c-65.54 114.04-127.84 220.083-192.724 331.85-21.68 37.343-14.265 83.987 19.226 103.228 33.492 19.242 77.81 2.41 99.324-35.072 64.292-111.995 126.706-217.98 192.727-331.852l4.705-8.117-5.225-3.002c-5.17 6.54-10.985 13.28-17.334 19.62-4.526 4.52-9.317 8.85-14.376 12.748C334.977 237.35 256.794 371.864 218.814 438c-16.704 29.078-50.333 43.54-76.033 28.78-12.85-7.38-20.423-20.697-22.5-35.155-2.075-14.458 1.03-30.36 9.44-44.844 37.22-64.13 114.514-197.106 172.124-296.608.803-7.887 2.495-15.78 4.652-23.445 2.366-8.41 5.33-16.568 8.43-24.106l-3.86-2.216zm-57.03 169.48c-42.186 72.684-83.947 144.55-108.16 186.272-6.41 11.04-8.512 22.943-7.095 32.813 1.42 9.868 6.04 17.415 13.314 21.592 14.55 8.357 37.802.232 50.5-21.875 28.334-49.335 78.162-135.183 126.732-218.804h-75.29z"/></symbol>
<symbol id="g-donut" viewBox="0 0 512 512"><path d="M256 92.3c-53.2 0-102.8 14.8-142.2 37.4l14.2 22.4-15.2 9.6-14.23-22.5c-2.17 1.4-4.3 2.9-6.39 4.4-38.75 27.9-63.12 63.7-66.7 97.2 2.98 6.7 8.12 17.5 14.74 28.8 10.73 18.3 26.22 36.6 37.19 39.8 17.92-2.5 33.99-22.1 50.29-19.3 25.1 5.1 38.1 28.4 50.3 48 9.3 14.5 21.1 34.7 38.1 36.5 6.2.7 11.6-1.2 17.7-5.2 6.1-4.1 12.5-10.4 19.2-17.3 13.2-13.7 27.7-30.9 49.5-33.6 15.3-2 27.6 6.2 38.1 12.4 10.4 6.1 18.7 10.2 25.5 8.6h.1c11.1-5.4 16.8-14.8 22.1-23.2l-35.6-25.4 10.4-14.6 35.9 25.6c5.1-5.5 11.4-10 19.7-11.8 11.5-2.5 20.4 3.8 27.1 8 6.6 4.2 11.2 6.3 13.8 5.8 3.1-.6 11.8-7 18.1-13.8 2-2.2 3.9-4.4 5.4-6.3 2.6-10.9 3.9-22.4 3.9-34.5 0-1.5-.1-3-.1-4.4l-37.6 18.7-8-16.2 42.4-21.2c-8-29-30.7-58.7-63.9-82.6-42-30.3-100.3-51.3-163.8-51.3zm69.1 14.2l6 17-50.3 18.1-6-17zm-140.2 11l33.4 9.6-5 17.2-33.4-9.5zm184.4 23l39.7 27.6-10.2 14.8-39.7-27.6zm-47.6 12.8l10.8 14.4-33 24.5-10.8-14.4zm-157 34l2.6 17.8-45.6 6.9-2.6-17.8zm91.3 3.6c17.8 0 34 3.2 46.5 9.1 12.5 5.8 22.9 15 22.9 28s-10.4 22.2-22.9 28c-12.5 5.9-28.7 9.1-46.5 9.1s-34-3.2-46.5-9.1c-12.5-5.8-22.9-15-22.9-28s10.4-22.2 22.9-28c12.5-5.9 28.7-9.1 46.5-9.1zm146.2 5.6l4.6 17.4-47.2 12.2-4.6-17.4zM256 208.9c-15.6 0-29.6 3-38.9 7.4-9.4 4.3-12.5 9.2-12.5 11.7s3.1 7.4 12.5 11.7c9.3 4.4 23.3 7.4 38.9 7.4 15.6 0 29.6-3 38.9-7.4 9.4-4.3 12.5-9.2 12.5-11.7s-3.1-7.4-12.5-11.7c-9.3-4.4-23.3-7.4-38.9-7.4zm-194.44 18l39.74 15.4-6.5 16.8-39.74-15.4zm-32 59.9c9.06 35.6 31.19 64.7 62.55 86.9 41.69 29.4 99.99 46 163.89 46 63.9 0 122.2-16.6 163.9-46 21.1-14.9 38.1-33 49.6-54.2-2 .9-4.1 1.6-6.3 2-11.5 2.4-20.4-4-27-8.2-6.7-4.1-11.2-6.2-13.7-5.6-7.2 1.6-13.4 9.7-20.6 20.8-7.3 11-15.6 25-31.8 28.6-15.2 3.4-28-4.4-38.7-10.7-10.6-6.3-19.5-11-26.6-10.1-16.8 5-29.2 18.3-38.9 28.3-6.8 7.1-13.8 14.3-22.1 19.8s-18.3 9.2-29.5 8.2c-26.8-4.9-39.2-24.9-51.6-45-12.3-19.7-23.5-36.8-38.6-39.9-18.7 3-31.62 24.4-51.74 18.9-18.43-5.4-32.01-22.5-42.8-39.8zm223.64 2.8l2.6 17.8-50.4 7.4-2.6-17.8z"/></symbol>
<symbol id="g-drop" viewBox="0 0 512 512"><path d="M263.844 40.344C234.1 213.202 145.594 248.03 145.594 369.22c0 60.804 60.106 105.5 118.25 105.5 59.45 0 115.937-41.803 115.937-99.533 0-116.332-85.2-162.312-115.936-334.843zm-58.28 217.094c-27.963 75.53-5.105 154.567 54.25 179.375 15.185 6.348 31.724 7.714 47.905 6.28-116.134 49.787-185.836-79.816-102.158-185.656z"/></symbol>
<symbol id="g-bubbles" viewBox="0 0 512 512"><path d="M82.055 26.807c-33.127 0-60.182 27.057-60.182 60.183 0 33.126 27.055 60.182 60.182 60.182 33.126 0 60.18-27.056 60.18-60.182 0-33.127-27.054-60.183-60.18-60.183zm13.85 21.043c16.15 5.665 27.64 20.98 27.64 39.14 0 23.025-18.465 41.49-41.49 41.49-23.025 0-41.49-18.465-41.49-41.49 0-.55.02-1.097.04-1.642 6.067 8.444 15.966 13.95 27.157 13.95 18.46 0 33.425-14.966 33.425-33.427 0-6.638-1.943-12.82-5.28-18.02zm158.058 11.855c-58.15.002-105.123 47.627-105.123 105.71 0 48.528 32.96 89.51 77.738 101.726-8.41 17.653-13.498 37.277-13.498 58.294 0 76.485 62.51 138.998 138.996 138.998h.004c76.485 0 138.412-62.562 138.412-138.998 0-38.083-15.76-72.427-40.658-97.454 16.358-14.68 26.643-36.147 26.643-59.648 0-43.695-35.733-79.426-79.428-79.426-20.743 0-39.395 8.335-53.43 21.41-18.555-30.156-51.717-50.61-89.657-50.61zm0 18.69c34.466 0 64.11 20.527 78.127 49.697-2.174 5.54-3.38 11.563-3.38 17.873 0 27.04 21.918 48.96 48.958 48.96s48.96-21.92 48.96-48.96c0-14.81-6.586-28.073-16.978-37.05 27.496 5.802 48.137 30.194 48.137 59.417 0 21.225-10.98 40.403-27.336 51.186l-10.354 6.826 9.418 8.07c25.745 22.062 42.29 54.548 42.29 91.02 0 66.374-53.402 120.308-119.724 120.308h-.004c-57.162 0-105.154-40.103-117.322-93.642 15.684 22.5 41.747 37.226 71.254 37.226 47.94 0 86.8-38.862 86.8-86.8 0-47.94-38.86-86.8-86.8-86.8-28.382 0-53.578 13.625-69.416 34.688-39.414-8.176-69.063-43.066-69.063-85 0-.494.01-.985.017-1.476 9.545 23.694 32.734 40.425 59.846 40.425 35.627 0 64.51-28.88 64.51-64.508 0-28.533-18.534-52.723-44.214-61.232 2.07-.148 4.162-.228 6.273-.228zm-148.018 163.44c-7.16-.028-14.436.883-21.668 2.82C40.2 256.47 14.415 302.08 26.203 346.076c6.57 24.52 23.502 43.28 44.84 53.198-6.084 12.932-7.977 27.963-3.982 42.87 9.028 33.693 44.24 53.447 77.813 44.45 33.573-8.995 53.595-43.677 44.6-77.25-3.488-13.016-10.86-23.98-20.496-32.017 16.684-19.844 24.108-47.014 16.87-74.027v-.003c-9.596-35.817-41.55-59.943-76.84-61.395-1.017-.042-2.04-.064-3.062-.068zm0 18.665c.794.002 1.586.018 2.375.05 27.367 1.083 52.01 19.727 59.475 47.585 6.445 24.055-2.003 47.964-19.39 63.7l-9.663 8.743 11.383 6.346c10.19 5.68 18.04 15.104 21.295 27.256 6.393 23.86-7.526 47.97-31.383 54.36-20.92 5.606-42.49-4.383-51.775-22.935 6.85 3.057 14.754 3.877 22.564 1.784 18.086-4.847 28.82-23.438 23.973-41.525-4.847-18.085-23.437-28.816-41.523-23.97-2.766.74-5.36 1.807-7.752 3.14-19.715-6.628-35.476-22.17-41.27-43.797-.678-2.524-1.18-5.05-1.548-7.572 10.962 18.105 32.915 27.61 54.387 21.857 26.044-6.978 41.5-33.75 34.52-59.796-4.7-17.548-18.392-30.275-34.788-34.586 3.055-.432 6.1-.647 9.12-.64z"/></symbol>
<symbol id="g-tropical-fish" viewBox="0 0 512 512"><path d="M162.624 52.61C97.727 52.9 43.2 71.024 20.26 77.065c180.533-16.45 207.453 29.552 202.45 80.002-18.22 37.848-25.254 55.3-27.918 70.57-.1-.087-.194-.175-.297-.263-.137 1.532-.252 3.068-.353 4.604-1.174 9.332-.916 18.495-.844 31.853.232 42.953 20.353 78.605 35.563 123.858-19.41 34.982-62.905 40.407-111.138 40.017 15.68 4.238 57.39 35.154 183.93-18.266-18.39 38.19-101.927 66.29-104.35 80.708 95.706-8.18 156.83-50.263 172.442-113.7 26.875-16.655 51.02-37.67 71.22-88.49 4.977-15.1 26.364-16.513 42.844-20.37 8.092-1.892 12.803-17.88 0-19.664-16.856-3.743-41.087-1.758-50.568-18.963C359.963 85.33 251.557 52.22 162.624 52.61zM68.11 170.79c-6.35-.04-11.513.988-14.995 3.296 52.984 29.347 72.777 42.044 73.205 52.064.306 18.476-56.007 23.49-57.59 33.362-.602 3.75 45.222 28.75 51.972 38.277 8.175 14.697-18.264 35.887-52.675 58.995 7.18 11.277 72.52-13.598 116.69-36.805-7.365-34.743-12.074-70.132-6.827-105.548-32.393-23.226-82.256-43.47-109.78-43.643zm309.805 34.105c17.18 0 31.3 14.12 31.3 31.3s-14.12 31.3-31.3 31.3-31.298-14.12-31.298-31.3 14.12-31.3 31.298-31.3zm-71.578 12.435c4.01.062 8.036.29 12.076.705l.487.05.478.102c7.506 1.608 10.558 7.368 12.705 12.56 2.147 5.19 3.38 11.144 4.006 17.52 1.25 12.75.433 26.886-5.97 37.98-3.817 6.613-9.487 8.915-16.46 11.564-6.97 2.65-15.513 4.687-25.05 5.833-19.078 2.29-42.133 1.066-62.616-8.352l-19.9-9.147 20.58-7.487c9.96-3.622 17.247-7.86 22.49-11.594-8.457-3.524-18.93-9.306-28.448-18.88l-10.3-10.36 13.886-4.54c26.63-8.707 53.964-16.39 82.035-15.952zm71.578 5.565c-7.45 0-13.298 5.85-13.298 13.3 0 5.78 3.525 10.582 8.582 12.45a13.773 13.008 0 0 1-1.802-6.397 13.773 13.008 0 0 1 13.773-13.008 13.773 13.008 0 0 1 4.546.746c-2.2-4.245-6.607-7.09-11.8-7.09zm-71.863 12.443c-19.507-.27-39.51 4.09-59.924 10.098 11.728 7.197 22.06 8.86 22.06 8.86l14.735 2.25-8.855 11.99s-3.546 4.686-10.194 10.02c-2.56 2.052-5.814 4.29-9.447 6.55 10.906 1.81 22.13 1.855 32.033.665 8.256-.99 15.592-2.804 20.81-4.786 5.216-1.982 8.043-5.09 7.26-3.736 2.872-4.975 4.633-17.148 3.645-27.227-.494-5.038-1.58-9.627-2.724-12.393-.48-1.16-.863-1.54-1.085-1.813-2.764-.23-5.53-.438-8.313-.476z"/></symbol>
<symbol id="g-octopus" viewBox="0 0 512 512"><path d="M150.25 19.97c-114.48-.574-139.972 184.95 20.563 212.124-29.5.534-55.382 8.11-91.75 25.97C-19.2 306.313.665 462.966 100.874 446c34.48-5.838 51.21-50.325.875-65.375 16.515 29.61-27.968 47.1-41.906 1.938-11.262-36.49 21.145-74.914 52.468-85 30.5-9.82 55.244-10.86 82.47-5.844-36.585 34.247-56.547 80.465-42.376 123.624 44.522 135.595 192.146 82.52 162.844-6.72-10.346-31.506-41.408-46.505-68-10.155 35.164-8.854 50.45 38.75 18.188 49.342-26.355 8.655-60.212-13.527-66.032-41.343-7.82-37.39 19.77-77.195 54.78-95.25 22.176 35.37 38.812 48.68 83.22 72.186 85.843 45.436 212.957-36.54 143.906-110.53-22.626-24.244-54.574-30.02-67.5 13.124 30.188-20.09 60.748 26.8 33.875 47.563-21.95 16.96-61.503 19.135-86.437 5.5-30.797-16.842-53.79-37.798-70.188-66.532 57.07 13.69 119.584-1.065 143-45.342 45.72-86.45-7.046-152.467-59.125-153.375-20.378-.356-40.654 9.237-54.875 31.5-17.85 27.946-9.815 61.533 35.157 59.124-29.11-21.628-1.9-63.623 26.717-45.343 23.378 14.932 22.494 51.88 9.75 77.28-15.165 30.23-60.573 50.738-95.062 24.657-3.008-5.71-5.563-11.683-7.78-17.843 8.99-6.49 14.874-17.028 14.874-28.875 0-17.772-13.252-32.64-30.345-35.218-9.763-47.134-23.34-92.648-84.844-112.594-13.64-4.424-26.437-6.472-38.28-6.53zm117.844 137.405c9.463 0 16.937 7.474 16.937 16.938 0 9.463-7.473 16.937-16.936 16.937-9.463 0-16.906-7.474-16.906-16.938 0-9.463 7.443-16.937 16.906-16.937zm-65.406 10.5c9.463 0 16.937 7.474 16.937 16.938 0 9.463-7.474 16.937-16.938 16.937-9.463 0-16.937-7.474-16.937-16.938 0-9.463 7.474-16.937 16.938-16.937z"/></symbol>
<symbol id="g-dolphin" viewBox="0 0 512 512"><path d="M123.22 47.23c29.498 15.152 55.025 36.05 55.53 67.366-93.62 83.867-83.862 179.356-97.002 270.34-67.68 55.552-67.57 90.948-60.9 101.227 3.94.743 29.11-25.94 48.326-30.397 14.23-4.094 12.284-15.99 16.273-25.275 2.438 14.55 7.17 22.612 17.133 25.485 12.874 3.36 44.932 28.15 51.53 25.504 1.374-20.382-26.01-63.854-48.028-90.087 41.012-63.28 81.365-136.458 211.162-207.77-3.21-3.706-6.216-6.45-8.8-7.986l9.198-15.472c11.617 6.907 20.522 19.56 29.248 35.033 5.94 10.532 11.528 22.644 16.96 35.117 15.682-32.87 22.983-66.406 16.402-90.254l17.35-4.786a87.287 87.287 0 0 1 1.927 8.83c33.29-4.253 55.718-13.083 85.11-29.322 3.744-2.068 19.054-13.012-.117-16.03 12.62-9.017 7.54-12.063 1.973-15.152-6.486-3.6-20.302-8.948-35.758-8.556-12.124-27.863-39.63-47.772-82.225-47.696-28.532.052-63.842 9.086-105.828 30.688C217.895 27.64 164.92 20.468 123.22 47.23zm286.942 28.74a9 9 0 1 1 0 18 9 9 0 0 1 0-18z"/></symbol>
<symbol id="g-shark-fin" viewBox="0 0 512 512"><path d="M349.603 42.768c-31.36-1.053-234.946 205.685-280.595 309.828 26.998-7.923 58.257-15.23 82.4-13.004 22.594 2.083 40.82 15.274 57.844 26.603 17.023 11.33 32.575 20.703 48.654 20.416 16.378-.29 32.196-11.74 49.502-24.862 17.306-13.122 36.175-27.944 60.272-27.812 6.093.033 12.397.946 18.79 2.505-56.174-100.224-21.42-289.766-36.062-293.598-.255-.04-.523-.065-.805-.074zm21.586 312.37c-24.097-.13-42.966 14.69-60.272 27.813-17.306 13.123-33.124 24.573-49.502 24.864-16.08.287-31.63-9.086-48.654-20.416-17.023-11.33-35.25-24.52-57.844-26.603-25.39-2.34-58.66 5.86-86.557 14.234-27.895 8.372-50.07 17.28-50.07 17.28l6.706 16.702s21.492-8.624 48.54-16.743c27.047-8.12 60-15.37 79.73-13.55 16.277 1.5 32.278 12.186 49.523 23.663 17.244 11.476 36 23.838 58.946 23.43 24.043-.43 42.793-15.428 60.057-28.518 17.264-13.09 32.97-24.245 49.3-24.156 17.393.094 46.024 13.347 68.952 27.23 22.928 13.882 40.662 27.745 40.662 27.745l11.09-14.176s-18.476-14.464-42.43-28.967c-23.954-14.504-52.877-29.696-78.178-29.834zm1.91 41.12c-24.097-.132-42.966 14.69-60.272 27.812-17.306 13.122-33.124 24.572-49.502 24.864-16.08.286-31.63-9.087-48.654-20.416-17.023-11.33-35.25-24.52-57.844-26.604-25.39-2.34-58.66 5.86-86.557 14.234-27.895 8.374-50.07 17.28-50.07 17.28l6.708 16.703s21.49-8.623 48.537-16.74c27.048-8.12 60.002-15.37 79.73-13.552 16.28 1.5 32.28 12.187 49.524 23.664 17.244 11.477 36 23.84 58.946 23.43 24.044-.43 42.795-15.427 60.06-28.518 17.263-13.09 32.966-24.245 49.296-24.156 17.394.095 46.025 13.348 68.953 27.23 22.928 13.883 40.662 27.748 40.662 27.748l11.092-14.177s-18.476-14.464-42.43-28.968c-23.955-14.504-52.88-29.696-78.18-29.834z"/></symbol>
<symbol id="g-sperm-whale" viewBox="0 0 512 512"><path d="M388.81 85.863c-10.106.254-17.64 6.364-22.757 14.442-6.165-4.3-13.264-7.895-21.207-10.39-6.427-2.02-26.645 4.732-45.768 18.536 16.392 6.376 11.844 6.948 16.82 19.672-19.66-1.988-28.31-2.94-30.048-17.138-.314-1.5-.81-2.916-1.467-4.254-15.234 3.722-22.6 8.77-41.026 11.262-4.858 1.226 9.583-18.77 28.99-22.52-17.26-9.138-46.225-9.985-60.945-6.962-38.524 7.91-42.33 52.6-23.88 65.316 3.717-9.353 14.566-12.168 29.5-11.238-6.366 11.284-9.915 22.665-2.81 34.414 12.574-8.952 22.625-20.764 41.436-21.068 9.623 2.09 11.337 1.27 17.832-4.88l15.178 108 14.834-3.673-17.642-88.91s26.496 16.27 32.306 11.938c5.81-4.33 4.52-17.324 2.108-25.986 8.803-10.564 32.432 10.386 50.568 20.367 4.478 2.463 8.11 2.078 11.05.108 5.887 9.216 28.117 16.154 29.333 8.32-7.037-6.56-5.26-19.9-21.938-19.044 3.03-7.668 4.03-16.074 4.03-16.074.157-5.07-.863-10.5-2.957-15.952 4.736 4.108 12.537 8.33 17.173 11.89 13.703-7.19 31.292.545 35.612-7.997-12.8-13.524-33.406-21.83-50.864-15.343-3.113 1.157-4.855 2.447-5.567 3.826-2.825-4.944-6.51-9.768-10.996-14.203 3.144.37 7.633-.016 14.79-1.902 9.453-4.466 11.325-11 10.534-18.26-4.425-1.688-8.496-2.388-12.22-2.295zm-222.017 27.145c-12.067.374-20 12.273-24.922 24.664 8.988 1.977 24.257 1.042 30.202-7.024 4.057-5.503 4.395-16.866-2.81-17.558a19.48 19.48 0 0 0-2.47-.082zm5.135 30.133c-1.324-.01-3.125.28-5.475.854-9.398 2.297-10.538 15.336-11.94 24.58 5.744-4.33 14.544-9.105 18.26-16.855 2.788-5.814 3.125-8.546-.845-8.58zm-22.887 73.38c-11.094.18-46.64 9.46-55.977 17.11-2.352 1.925-6.47 11.213-8.688 11.042-3.068-.237-5.27-10.055-5.27-10.055-22.123-12.38-60.006-10.56-59.652-8.71.858 4.478 4.636 49.63 63.166 65.92 9.884 67.545 64.372 95.08 134.497 98.36-19.497 13.367-75.48 18.697-67.775 30.55 12.604 10.522 83.862 4.593 124.504-8.34 14.09-4.484 28.865-8.31 44.047-11.637 43.23 10.56 111.83 23.66 151.36 10.984 13.348-4.28 7.064-20.362 1.054-18.262-14.39 5.03-63.573 1.735-91.79-3.49 34.826-5.05 69.914-8.652 102.325-12.45 9.162-20.386 12.522-54.712 11.545-79.774-1.878-48.145-32-52.028-101.092-44.247-104.013 11.715-145.852 43.226-218.777 61.837-11.118 2.838-47.684-4.157-63.373-29.783 36.728-17.253 50.916-61.758 43.005-68.545-.44-.378-1.524-.536-3.11-.51zm220.81 141.173c-1.616 4.194-4.184 8.546-11.72 9.526-7.538.978-11.46-3.26-13.696-8.824 8.47 1.463 16.944 1.146 25.416-.703z"/></symbol>
<symbol id="g-dragon-head" viewBox="0 0 512 512"><path d="M200.947 18.686c-6.98.087-14.64.774-22.85 1.9 27.57 20.468 51.098 45.25 67.594 70.527 1.66 0 3.312.012 4.958.047 18.066.39 35.487 2.906 53.217 7.2-15.695-28.457-29.935-50.19-47.45-63.22-13.817-10.278-30.063-16.168-52.52-16.454-.967-.013-1.95-.013-2.948 0zm-91.66 22.96c-.73-.002-1.46.006-2.195.022-14.045.31-29.36 3.92-46.86 11.13 56.18 18.807 106.985 50.468 133.907 83.585 18.377-5.13 29.44-14.72 36.454-28.817C195.84 78.18 168.118 56.19 140.65 46.96c-10.168-3.418-20.433-5.306-31.363-5.315zm-.203 52.786c-39.42 6.758-74.73 31.854-87.822 74.19v322.345h212.73C100.352 442.58 61.19 206.49 187.115 230.104c5.838-14.164 9.92-28.027 11.018-41.465l18.627 1.522c-1.684 20.592-8.828 40.49-18.033 59.943-.732 2.035-1.472 4.12-2.186 6.063 32.842 85.24 113.77 160.69 169.495 168.197.915.033 1.905-.002 2.953-.09 17.016 1.035 35.86-4.222 52.21-22.304l7.984-8.83-10.473-5.658c-6.507-3.515-14.29-7.094-18.167-10.925-1.938-1.916-2.793-3.47-3.074-5.194-.282-1.725-.13-4.227 2.23-8.578l10.673-19.656-21.484 6.222c-6.304 1.825-17.305-3.032-23.224-10.71-2.96-3.84-4.408-7.907-4.387-10.843.02-2.938.72-5.125 4.747-8.05l19.453-14.125-23.884-2.72c-9.974-1.137-16.37-6.658-19.17-12.294-2.802-5.634-2.312-10.084 1.375-13.31l12.204-10.677-15.358-5.205c-6.717-2.276-10.296-7.555-10.357-10.633-.028-1.373.238-2.666 1.843-4.476 10.93-2.39 21.258-.45 28.088 6.374 6.154 6.146 8.35 15.128 6.977 24.832 8.55-2.254 16.985-1.616 24.112 2.494 9.34 5.387 14.647 15.692 15.67 27.965 15.212-10.132 32.152-12.725 45.262-5.164 15.467 8.92 21.36 29.513 16.805 51.75 23.992-33.355 34.588-75.717 5.617-120.43-46.726-4.442-81.693-30.676-93.293-67.64-5.026-16.016-21.284-28.67-42-37.904l-.08.217c-29.74-10.823-55.575-17.35-82.604-18.733l.08.155c-2.294-.093-4.56-.16-6.762-.172-9.537 22.874-28.662 39.9-57.436 46.054l-5.906 1.262-3.576-4.864c-14.216-19.33-41.23-40.452-74.002-58.074zm156.215 65.26c27.927-.073 44.874 11.617 42.09 44.45-35.844 3.39-51.933-16.683-63.074-42.632 7.507-1.155 14.538-1.8 20.983-1.817zm48.407 66.363c3.708.07 7.14.994 10.014 2.812-1.51 1.102-2.898 2.28-4.16 3.543-5.246 5.24-8.087 12.122-7.956 18.742.183 9.322 5.27 17.184 12.68 22.56-3.14 8.103-2.452 17.455 1.407 25.22 3.813 7.668 10.54 14.273 19.302 18.398-1.445 3.366-2.375 6.862-2.4 10.33-.062 8.407 3.38 16.042 8.273 22.39 6.792 8.81 16.862 15.936 28.026 17.91-.183 2.18-.204 4.333.133 6.407 1.05 6.444 4.515 11.66 8.38 15.48 3.41 3.37 7.19 5.892 10.798 7.993-6.345 4.792-12.414 7.056-18.618 7.79-6.515-7.937-9.71-19.084-9.41-31.454-11.767 6.177-24.21 7.156-34.12 1.44-14.668-8.46-19.393-29.036-13.187-50.33-11.336 2.77-22.13.92-29.187-6.132-8.875-8.865-9.535-23.626-3.094-37.95-3.676-.615-6.963-2.166-9.525-4.725-8.808-8.798-5.773-26.09 6.776-38.626 7.843-7.835 17.546-11.957 25.87-11.8z"/></symbol>
</svg>